PathFileType	4	(X/Y/Z)	E:\Qualisys_Data\Carbon_Farble_Plate\Data\Amateur_Runner\S1\T3\S1T3V23_c3d.trc
DataRate	CameraRate	NumFrames	NumMarkers	Units	OrigDataRate	OrigDataStartFrame	OrigNumFrames
200.000000	200.000000	4	39	mm	200.000000	222	296
Frame#	Time	LSHO			RSHO			LICST			RICST			LASIS			LHEEL			RASIS			LTROC			RTROC			SACR			LTH1			LSK4			LTH2			LTH3			RHM5			LSK2			LTH4			RTH1			LTOE			RTH2			RTH3			RTH4			LLEP			RLEP			LSK1			LSK3			RSK1			LHM5			RSK2			LFT1			RSK3			RSK4			LLME			RLME			RTOE			RHEEL			RFT1			RFT2			LFT2			
		X1	Y1	Z1	X2	Y2	Z2	X3	Y3	Z3	X4	Y4	Z4	X5	Y5	Z5	X6	Y6	Z6	X7	Y7	Z7	X8	Y8	Z8	X9	Y9	Z9	X10	Y10	Z10	X11	Y11	Z11	X12	Y12	Z12	X13	Y13	Z13	X14	Y14	Z14	X15	Y15	Z15	X16	Y16	Z16	X17	Y17	Z17	X18	Y18	Z18	X19	Y19	Z19	X20	Y20	Z20	X21	Y21	Z21	X22	Y22	Z22	X23	Y23	Z23	X24	Y24	Z24	X25	Y25	Z25	X26	Y26	Z26	X27	Y27	Z27	X28	Y28	Z28	X29	Y29	Z29	X30	Y30	Z30	X31	Y31	Z31	X32	Y32	Z32	X33	Y33	Z33	X34	Y34	Z34	X35	Y35	Z35	X36	Y36	Z36	X37	Y37	Z37	X38	Y38	Z38	X39	Y39	Z39	

223	1.11	1547.978759765625	1450.878540039062	-579.4237060546875	1602.402709960938	1477.713012695312	-259.09326171875	1557.450927734375	1004.306213378906	-512.22607421875	1582.694702148438	1014.510437011719	-213.4429626464844	1606.924926757812	970.7828369140624	-490.057861328125	1649.945556640625	74.74903869628906	-397.2277221679688	1620.032104492188	966.6385498046876	-225.909912109375	1510.459350585938	877.0523681640625	-529.4771118164062	1509.114379882812	878.4596557617188	-187.1062622070312	1450.678833007812	1018.650268554688	-350.4573974609375	1684.201049804688	766.74267578125	-508.3094177246094	1654.636108398438	214.3716583251953	-430.3707275390625	1610.79443359375	730.3460693359375	-533.5977172851562	1721.676147460938	670.581787109375	-491.958984375	1088.717041015625	294.5806884765625	-209.9888916015625	1661.6455078125	308.9580078125	-471.8504638671875	1643.714599609375	638.1787719726562	-506.6641235351562	1626.946655273438	740.1296997070312	-214.0003662109375	1898.365844726562	77.81549835205078	-400.2741394042969	1551.686157226562	741.2514038085938	-186.6770172119141	1623.935668945312	638.9291381835938	-216.8870391845703	1545.010375976562	641.53857421875	-199.6493682861328	1725.06201171875	513.9799194335938	-468.8835144042969	1551.438842773438	477.0656433105469	-227.4205017089844	1744.648193359375	302.3371276855469	-462.5410461425781	1730.821411132812	202.2972259521484	-452.749755859375	1375.716796875	438.0145874023438	-212.2188110351562	1829.59228515625	59.3740348815918	-462.6329040527344	1364.830688476562	514.7925415039062	-238.5281524658203	1658.801635742188	49.40730285644531	-363.6651916503906	1277.705078125	419.481201171875	-224.8170471191406	1267.64306640625	493.5231018066406	-256.0394592285156	1701.431518554688	87.8381576538086	-444.5719909667969	1145.363525390625	432.7232971191406	-227.9103240966797	1111.5673828125	237.0679779052734	-276.9351806640625	1102.986938476562	488.7212829589844	-278.5615234375	1080.114135742188	474.9238586425781	-310.0618591308594	1076.700317382812	486.6914367675781	-258.2662353515625	1653.3291015625	40.33462142944336	-414.9644470214844
224	1.115	1570.228515625	1445.560424804688	-581.0653686523438	1621.5498046875	1472.453125	-259.0304565429688	1575.511474609375	999.4812622070312	-513.5139770507812	1601.79345703125	1009.281188964844	-213.4468536376953	1624.983764648438	966.0447387695312	-490.5812377929688	1650.892211914062	76.8200454711914	-393.5547790527344	1639.635009765625	961.8402709960938	-226.3686828613281	1528.815551757812	872.236328125	-531.3919067382812	1529.748901367188	872.5565795898438	-188.8062896728516	1468.577758789062	1013.474243164062	-351.1333312988281	1702.837158203125	760.9296875	-509.684814453125	1665.336547851562	216.483154296875	-432.3795471191406	1628.578491210938	725.6304931640625	-535.869140625	1739.1748046875	664.3294677734375	-492.0282592773438	1120.65185546875	296.9005126953125	-209.2814178466797	1676.18603515625	310.5923767089844	-473.7838134765625	1660.251586914062	633.2144775390625	-510.1971740722656	1650.792846679688	736.5150756835938	-213.7859039306641	1899.748413085938	79.35909271240234	-400.3413391113281	1575.520629882812	735.6220092773438	-187.3460998535156	1651.028930664062	635.3362426757812	-216.0849151611328	1571.599243164062	635.8916015625	-199.2619781494141	1746.795654296875	511.2467041015625	-468.7105102539062	1583.130859375	472.3170166015625	-227.0152893066406	1759.760375976562	300.7993774414062	-461.6682434082031	1741.615844726562	201.5004272460938	-451.904541015625	1407.971069335938	435.994384765625	-212.4481048583984	1828.253662109375	57.46466827392578	-461.6058959960938	1398.194091796875	512.9292602539062	-239.8321990966797	1659.676025390625	49.8687629699707	-362.0957946777344	1309.922973632812	419.2334289550781	-224.8589630126953	1300.842895507812	493.4210815429688	-256.6864929199219	1704.7890625	88.78522491455078	-441.1204833984375	1177.616455078125	434.7291259765625	-228.6925354003906	1143.6630859375	238.6188659667969	-275.3320617675781	1135.60107421875	490.5797119140625	-280.237060546875	1112.698974609375	476.1392211914062	-311.8440856933594	1109.20263671875	488.4277038574219	-259.8049011230469	1653.9736328125	42.7491569519043	-413.3121643066406
225	1.12	1592.564575195312	1440.6484375	-582.446044921875	1640.680419921875	1467.71240234375	-258.5853576660156	1592.8740234375	995.2408447265624	-514.436767578125	1620.450439453125	1004.594299316406	-215.0126800537109	1642.33984375	961.912109375	-491.3724365234375	1652.86474609375	79.38213348388672	-391.1317138671875	1658.928588867188	957.1376342773438	-227.3959350585938	1546.43896484375	868.397705078125	-532.9266967773438	1550.36474609375	866.1677856445312	-190.5855255126953	1486.041870117188	1008.709899902344	-351.1242065429688	1722.554809570312	756.361328125	-512.4112548828125	1675.24853515625	220.2357025146484	-433.2875366210938	1647.395263671875	722.4229125976562	-536.7771606445312	1757.717529296875	659.8994750976562	-497.0336608886719	1153.66015625	299.0799865722656	-208.4550170898438	1692.388671875	313.4898376464844	-475.704345703125	1678.169921875	629.6812133789062	-513.8684692382812	1674.979125976562	733.30517578125	-214.3441772460938	1901.619262695312	74.98657989501953	-403.3912658691406	1599.525634765625	730.3770751953125	-187.9763336181641	1678.039794921875	631.7845458984375	-215.4202270507812	1598.49365234375	630.5845336914062	-198.8899078369141	1768.857788085938	511.1539611816406	-468.2733154296875	1615.292602539062	468.6515808105469	-226.8489532470703	1774.4345703125	300.9487609863281	-459.4866638183594	1752.053344726562	202.2391357421875	-449.262939453125	1440.750366210938	434.2683410644531	-211.8372650146484	1827.665283203125	56.4345703125	-462.3873596191406	1432.756103515625	510.7962646484375	-239.2583770751953	1660.689086914062	51.5644416809082	-360.5431213378906	1342.541625976562	418.8002014160156	-225.5291595458984	1334.790771484375	492.8190307617188	-257.05810546875	1704.197631835938	93.3240203857422	-439.9577331542969	1210.683227539062	436.4684143066406	-229.05029296875	1176.552490234375	240.0758819580078	-273.8530883789062	1168.5654296875	491.7248840332031	-281.5099792480469	1145.618774414062	477.3419189453125	-313.1055297851562	1142.057373046875	490.0855407714844	-260.9888000488281	1654.001342773438	46.00917816162109	-411.4438171386719
226	1.125	1614.974731445312	1435.906860351562	-583.941162109375	1659.613159179688	1463.289306640625	-258.1246948242188	1609.499145507812	991.7333984375	-515.6032104492188	1639.614990234375	999.7150268554688	-215.3309478759766	1659.296875	958.2252197265624	-492.0191345214844	1655.400390625	81.94314575195312	-389.309326171875	1678.089721679688	952.1792602539062	-227.4061737060547	1563.620239257812	866.7333984375	-533.072998046875	1570.700927734375	860.4392700195312	-192.4647064208984	1504.215576171875	1005.115966796875	-351.7275390625	1742.258544921875	755.6843872070312	-515.7737426757812	1684.687622070312	224.6577911376953	-432.7236938476562	1666.2431640625	720.8797607421875	-536.3782348632812	1778.322631835938	660.61572265625	-497.7612915039062	1187.304565429688	300.40283203125	-207.5456085205078	1708.93798828125	316.7306518554688	-476.6268310546875	1700.03857421875	629.2169189453125	-512.543212890625	1699.216674804688	730.2691040039062	-214.4244232177734	1902.482177734375	70.83113861083984	-402.2437133789062	1624.119384765625	725.572021484375	-189.8320922851562	1705.18603515625	628.9109497070312	-214.7255859375	1625.583862304688	625.4931030273438	-198.4529724121094	1789.948364257812	512.4092407226562	-468.6752624511719	1647.6552734375	465.1144409179688	-226.7879028320312	1789.265014648438	299.9635925292969	-457.1885986328125	1761.129150390625	203.1681518554688	-445.5246887207031	1474.066772460938	432.7228393554688	-212.2760467529297	1830.104614257812	56.21464538574219	-460.78857421875	1466.803466796875	509.2671508789062	-239.7405700683594	1662.161743164062	53.17127990722656	-359.7210693359375	1375.689575195312	417.8854370117188	-225.7713165283203	1368.697387695312	492.38232421875	-257.5411071777344	1704.905395507812	98.24317169189452	-437.5967407226562	1244.1201171875	436.9407348632812	-229.9185791015625	1210.027221679688	240.5518951416016	-272.2261352539062	1201.763061523438	492.3614196777344	-282.3774108886719	1178.811401367188	477.778076171875	-314.11279296875	1175.42431640625	490.88232421875	-261.9902648925781	1655.477661132812	49.58489990234375	-410.3363037109375
